<?xml version="1.0" encoding="utf-8"?>
<!-- Generator: Adobe Illustrator 16.0.0, SVG Export Plug-In . SVG Version: 6.00 Build 0)  -->
<!DOCTYPE svg PUBLIC "-//W3C//DTD SVG 1.1//EN" "http://www.w3.org/Graphics/SVG/1.1/DTD/svg11.dtd">
<svg version="1.1" id="Layer_1" xmlns="http://www.w3.org/2000/svg" xmlns:xlink="http://www.w3.org/1999/xlink" x="0px" y="0px"
	 width="444.828px" height="74.138px" viewBox="0 0 444.828 74.138" enable-background="new 0 0 444.828 74.138"
	 xml:space="preserve">
<g>
	<path fill="#484848" d="M75.113,28.739c0-2.105,1.423-3.593,3.36-3.593c2.051,0,3.363,1.487,3.363,3.593
		c0,1.992-1.312,3.534-3.421,3.534C76.477,32.273,75.113,30.731,75.113,28.739z M75.171,50.394c0-2.104,1.424-3.588,3.362-3.588
		c2.048,0,3.36,1.484,3.36,3.588c0,1.994-1.312,3.533-3.42,3.533C76.537,53.927,75.171,52.388,75.171,50.394z"/>
</g>
<g>
	<path fill="#484848" d="M86.158,63.927l16.434-52.765h4.323l-16.56,52.765H86.158z"/>
</g>
<g>
	<path fill="#484848" d="M100.554,63.927l16.433-52.765h4.323l-16.56,52.765H100.554z"/>
</g>
<g>
	<path fill="#5A3C59" d="M142.602,54.782h7.034V20.075h-7.034v-8.89h21.953l19.248,32.775h0.155V20.075h-6.803v-8.89h23.577v8.89
		h-7.421v43.598h-11.75l-22.417-38.574h-0.154v29.683h6.57v8.891h-22.958V54.782z"/>
	<path fill="#5A3C59" d="M220.311,64.522c-10.822,0-19.17-7.034-19.17-19.17c0-12.833,9.276-19.094,19.17-19.094
		c10.668,0,19.248,6.802,19.248,19.094C239.559,56.87,231.752,64.522,220.311,64.522z M220.311,35.303
		c-4.638,0-7.189,3.71-7.189,10.281c0,6.185,2.706,9.895,7.189,9.895c4.639,0,7.267-3.71,7.267-10.126
		C227.577,39.013,224.949,35.303,220.311,35.303z"/>
	<path fill="#5A3C59" d="M241.966,27.109h4.638v-5.72l11.827-8.349v14.069h6.571v8.426h-6.571v15.847
		c0,3.169,0.542,3.787,3.015,3.787c1.237,0,1.933-0.154,3.557-0.695v7.885c-2.938,1.236-5.875,1.855-8.735,1.855
		c-4.638,0-9.663-2.242-9.663-8.735V35.535h-4.638V27.109z"/>
	<path fill="#5A3C59" d="M268.558,27.109h18.63v3.015c4.251-2.474,7.807-3.556,11.595-3.556c4.87,0,8.89,1.778,11.209,5.024
		c5.256-3.556,9.354-5.024,14.455-5.024c6.647,0,12.522,2.783,12.522,12.059v16.62h7.267v8.426h-19.094V42.415
		c0-4.02-1.469-5.875-4.792-5.875c-2.551,0-5.257,0.851-8.271,2.473v16.234h6.57v8.426h-18.397V42.415
		c0-4.175-1.392-5.875-4.716-5.875c-2.628,0-4.869,0.696-8.348,2.473v16.234h6.57v8.426h-25.2v-8.426h6.803V35.535h-6.803V27.109z"
		/>
	<path fill="#5A3C59" d="M387.681,63.673h-17.702v-2.861c-3.401,2.396-6.339,3.402-9.895,3.402c-7.652,0-13.373-4.871-13.373-11.441
		c0-7.111,6.262-12.291,14.997-12.291c3.323,0,5.333,0.619,8.271,1.624v-2.01c0-3.788-2.782-6.416-6.957-6.416
		c-2.705,0-4.561,0.85-6.647,2.86l-9.431-1.623c2.938-5.952,8.503-8.658,17.701-8.658c11.982,0,17.161,4.251,17.161,13.991v14.997
		h5.875V63.673z M363.254,47.517c-3.093,0-5.334,1.932-5.334,4.561c0,2.783,2.087,4.87,4.793,4.87c2.318,0,4.174-1.005,7.266-3.788
		v-3.015C367.119,48.29,365.031,47.517,363.254,47.517z"/>
	<path fill="#5A3C59" d="M391.47,27.109h17.47v3.401c3.788-2.783,6.803-3.942,10.513-3.942c4.87,0,11.132,2.628,11.132,12.445
		v16.234h5.333v8.426h-17.16V40.481c0-2.937-1.237-4.096-3.401-4.096c-2.01,0-4.252,0.85-6.416,2.396v16.466h4.87v8.426h-22.34
		v-8.426h5.643V35.535h-5.643V27.109z"/>
</g>
<path fill="none" stroke="#5A3C59" stroke-width="4" stroke-miterlimit="10" d="M35.306,13.382
	c-1.312,1.103-20.221,19.159-23.881,22.448c-2.403,2.159-0.701,3.818,1.757,3.818s4.074,0,4.074,0v20.291
	c0,1.452,0.989,2.63,2.208,2.63H55.22c1.22,0,2.209-1.178,2.209-2.63l0.01-20.291c0,0,1.625,0,4.083,0
	c2.458,0,4.16-1.659,1.757-3.818c-3.66-3.289-22.977-21.36-24.32-22.448C37.615,12.294,36.616,12.28,35.306,13.382z"/>
</svg>
